<svg width="24" height="37" viewBox="0 0 24 37" fill="none" xmlns="http://www.w3.org/2000/svg">
<g clip-path="url(#clip0_1366_227)">
<path d="M12.5044 3.19499C12.3663 3.06929 12.1863 2.99963 11.9995 2.99963C11.8128 2.99963 11.6328 3.06929 11.4947 3.19499L3.99469 10.2769C3.91751 10.3472 3.85587 10.433 3.81374 10.5285C3.7716 10.6241 3.74989 10.7274 3.75 10.8319V19.5C3.75 19.6989 3.82902 19.8897 3.96967 20.0303C4.11032 20.171 4.30109 20.25 4.5 20.25H19.5C19.6989 20.25 19.8897 20.171 20.0303 20.0303C20.171 19.8897 20.25 19.6989 20.25 19.5V10.8319C20.25 10.7273 20.2281 10.624 20.1858 10.5284C20.1435 10.4328 20.0817 10.3472 20.0044 10.2769L12.5044 3.19499Z" stroke="#767676" stroke-width="2" stroke-linecap="round" stroke-linejoin="round"/>
</g>
<path d="M8.90039 34.08H15.0704V36.66H8.90039V34.08ZM14.2604 34.71H9.71039V36.02H14.2604V34.71ZM8.33039 28.48H15.6004V29.13H8.33039V28.48ZM11.9804 29.49C12.9204 29.49 13.6404 29.6 14.1404 29.82C14.6471 30.0333 14.9004 30.35 14.9004 30.77C14.9004 31.19 14.6471 31.51 14.1404 31.73C13.6404 31.9433 12.9204 32.05 11.9804 32.05C11.0537 32.05 10.3337 31.9433 9.82039 31.73C9.31372 31.51 9.06039 31.19 9.06039 30.77C9.06039 30.35 9.31372 30.0333 9.82039 29.82C10.3337 29.6 11.0537 29.49 11.9804 29.49ZM11.9804 30.07C11.3337 30.07 10.8304 30.13 10.4704 30.25C10.1171 30.37 9.94039 30.5433 9.94039 30.77C9.94039 30.9967 10.1171 31.17 10.4704 31.29C10.8304 31.41 11.3337 31.47 11.9804 31.47C12.6337 31.47 13.1371 31.41 13.4904 31.29C13.8437 31.17 14.0204 30.9967 14.0204 30.77C14.0204 30.5433 13.8437 30.37 13.4904 30.25C13.1371 30.13 12.6337 30.07 11.9804 30.07ZM11.5704 27.6H12.4004V28.9H11.5704V27.6ZM7.90039 32.73H16.0704V33.39H7.90039V32.73ZM11.5704 31.84H12.4004V33.1H11.5704V31.84Z" fill="#767676"/>
<defs>
<clipPath id="clip0_1366_227">
<rect width="24" height="24" fill="white"/>
</clipPath>
</defs>
</svg>
